{"title":"Edge.of.Darkness.R5.LINE.XviD-MENTiON-[tracker.BTARENA.org].torr","uid":5367493,"size":1468423239,"categoryP":"video","categoryS":"movies","magnet":"?xt=urn:btih:8101389b7a7fcd5ade7f523f5150403014fab8e4&amp;dn=Edge.of.Darkness.R5.LINE.XviD-MENTiON-%5Btracker.BTARENA.org%5D.torr&amp;tr=udp%3A%2F%2Ftracker.openbittorrent.com%3A80&amp;tr=udp%3A%2F%2Fopen.demonii.com%3A1337&amp;tr=udp%3A%2F%2Ftracker.coppersurfer.tk%3A6969&amp;tr=udp%3A%2F%2Fexodus.desync.com%3A6969","seeders":1,"leechers":0,"uploader":"AiTB","files":4,"time":1266316051,"description":"sample, info\n &lt;a href=&quot;\nhttp://www.btarena.org/movies/r5/edge-of-darkness-r5-line-xvid-mention&quot; rel=&quot;nofollow&quot; target=&quot;_NEW&quot;&gt;\nhttp://www.btarena.org/movies/r5/edge-of-darkness-r5-line-xvid-mention&lt;/a&gt;\n\nVideo\nID                               : 0\nFormat                           : MPEG-4 Visual\nFormat profile                   : Advanced Simple@L5\nFormat settings, BVOP            : Yes\nFormat settings, QPel            : No\nFormat settings, GMC             : No warppoints\nFormat settings, Matrix          : Default (H.263)\nCodec ID                         : XVID\nCodec ID/Hint                    : XviD\nDuration                         : 1mn 31s\nBit rate                         : 1 024 Kbps\nWidth                            : 608 pixels\nHeight                           : 256 pixels\nDisplay aspect ratio             : 2.35:1\nFrame rate                       : 25.000 fps\nResolution                       : 8 bits\nColorimetry                      : 4:2:0\nScan type                        : Progressive\nBits/(Pixel*Frame)               : 0.263\nStream size                      : 11.2 MiB (88%)\nWriting library                  : XviD 1.2.1 (UTC 2008-12-04)\n\nAudio\nID                               : 1\nFormat                           : MPEG Audio\nFormat version                   : Version 1\nFormat profile                   : Layer 3\nCodec ID                         : 55\nCodec ID/Hint                    : MP3\nDuration                         : 1mn 31s\nBit rate mode                    : Variable\nBit rate                         : 131 Kbps\nChannel(s)                       : 2 channels\nSampling rate                    : 48.0 KHz\nStream size                      : 1.42 MiB (11%)\nAlignment                        : Aligned on interleaves\nInterleave, duration             : 24 ms (0.60 video frame)\nInterleave, preload duration     : 487 ms\n\n\n\n","torrent":{"xt":"urn:btih:8101389b7a7fcd5ade7f523f5150403014fab8e4","amp;dn":"Edge.of.Darkness.R5.LINE.XviD-MENTiON-%5Btracker.BTARENA.org%5D.torr","amp;tr":["udp%3A%2F%2Ftracker.openbittorrent.com%3A80","udp%3A%2F%2Fopen.demonii.com%3A1337","udp%3A%2F%2Ftracker.coppersurfer.tk%3A6969","udp%3A%2F%2Fexodus.desync.com%3A6969"],"infoHash":"8101389b7a7fcd5ade7f523f5150403014fab8e4","infoHashBuffer":{"type":"Buffer","data":[129,1,56,155,122,127,205,90,222,127,82,63,81,80,64,48,20,250,184,228]},"announce":[],"urlList":[]}}